<svg width="14" height="14" viewBox="0 0 14 14" fill="none" xmlns="http://www.w3.org/2000/svg">
<path fill-rule="evenodd" clip-rule="evenodd" d="M7.78098 2.00532C7.96212 1.82198 8.2576 1.82019 8.44094 2.00134L12.9281 6.43467C13.0169 6.52234 13.0668 6.64189 13.0668 6.76664C13.0668 6.89138 13.0169 7.01093 12.9281 7.09861L8.44094 11.5319C8.2576 11.7131 7.96212 11.7113 7.78098 11.528C7.59984 11.3446 7.60162 11.0491 7.78497 10.868L11.4638 7.2333H0.933464C0.675731 7.2333 0.466797 7.02437 0.466797 6.76664C0.466797 6.5089 0.675731 6.29997 0.933464 6.29997H11.4638L7.78497 2.66527C7.60162 2.48413 7.59984 2.18866 7.78098 2.00532Z" fill="white"/>
</svg>
