<svg width="14" height="14" viewBox="0 0 14 14" fill="none" xmlns="http://www.w3.org/2000/svg">
<g clip-path="url(#clip0_904_830)">
<path fill-rule="evenodd" clip-rule="evenodd" d="M0.969361 8.3999C1.24692 8.3999 1.47193 8.60884 1.47193 8.86657V12.1332H12.5283V8.86657C12.5283 8.60884 12.7533 8.3999 13.0309 8.3999C13.3085 8.3999 13.5335 8.60884 13.5335 8.86657V13.0666H0.466797V8.86657C0.466797 8.60884 0.691802 8.3999 0.969361 8.3999Z" fill="white"/>
<path fill-rule="evenodd" clip-rule="evenodd" d="M7.00006 0.466797C7.30075 0.466797 7.54451 0.698946 7.54451 0.985315V8.0298L9.33731 6.32237C9.54992 6.11988 9.89465 6.11988 10.1073 6.32237C10.3199 6.52487 10.3199 6.85317 10.1073 7.05567L7.38504 9.64826C7.17243 9.85075 6.8277 9.85075 6.61508 9.64826L3.89286 7.05567C3.68024 6.85317 3.68024 6.52487 3.89286 6.32237C4.10548 6.11988 4.4502 6.11988 4.66282 6.32237L6.45562 8.0298V0.985315C6.45562 0.698946 6.69938 0.466797 7.00006 0.466797Z" fill="white"/>
</g>
<defs>
<clipPath id="clip0_904_830">
<rect width="14" height="14" fill="white"/>
</clipPath>
</defs>
</svg>
