<svg width="170" height="30" viewBox="0 0 170 30" fill="none" xmlns="http://www.w3.org/2000/svg">
<path fill-rule="evenodd" clip-rule="evenodd" d="M7.17819 26.5376C7.74235 26.9419 8.48486 26.9978 9.10322 26.6826L15.3158 23.5162L21.1453 26.6042C21.7658 26.9329 22.5186 26.8835 23.0908 26.4766C23.6631 26.0697 23.9569 25.3748 23.8501 24.6808L22.7286 17.3885L27.3856 13.2685C27.9387 12.7793 28.1493 12.0089 27.9222 11.3063C27.695 10.6037 27.0732 10.1024 26.3385 10.0295L19.4939 9.35039L16.6504 3.08743C16.3451 2.41509 15.6706 1.98746 14.9323 1.99824C14.194 2.00902 13.5322 2.45616 13.2467 3.13712L10.8425 8.87141L3.57675 10.1537C2.88527 10.2758 2.32173 10.7774 2.12038 11.4501C1.91903 12.1227 2.11429 12.8515 2.62501 13.3334L7.42315 17.8607L6.422 24.7614C6.32235 25.4482 6.61402 26.1333 7.17819 26.5376ZM9.39961 17.1722L3.89953 11.9826L12.1634 10.5241L14.9594 3.85518L18.2453 11.0928L26.1551 11.8776L20.739 16.6691L22.0146 24.9631L15.3323 21.4233L8.2599 25.028L9.39961 17.1722Z" fill="#1CAF97"/>
<path fill-rule="evenodd" clip-rule="evenodd" d="M16.7889 3.10558C16.4407 2.40904 15.7198 1.97799 14.9413 2.00087C14.1629 2.02374 13.4686 2.49638 13.1618 3.21217L10.6175 9.14887L3.2664 10.0137C2.47257 10.1071 1.81058 10.6642 1.58292 11.4304C1.35527 12.1966 1.60567 13.0247 2.21972 13.5364L7.37994 17.8366L6.51553 24.7519C6.42269 25.4946 6.75232 26.227 7.3698 26.65C7.98729 27.073 8.78928 27.1158 9.44829 26.7609L15.0342 23.7531L21.1057 26.7889C21.785 27.1285 22.5981 27.0541 23.2045 26.5967C23.8108 26.1393 24.1058 25.3779 23.9658 24.6314L22.6716 17.7288L27.3454 13.4799C27.9212 12.9565 28.1411 12.1467 27.9092 11.4039C27.6773 10.6612 27.0357 10.1204 26.2644 10.0175L19.815 9.15762L16.7889 3.10558Z" fill="#1CAF97"/>
<path fill-rule="evenodd" clip-rule="evenodd" d="M42.1782 26.5376C42.7424 26.9419 43.4849 26.9978 44.1032 26.6826L50.3158 23.5162L56.1453 26.6042C56.7658 26.9329 57.5186 26.8835 58.0908 26.4766C58.6631 26.0697 58.9569 25.3748 58.8501 24.6808L57.7286 17.3885L62.3856 13.2685C62.9387 12.7793 63.1493 12.0089 62.9222 11.3063C62.695 10.6037 62.0732 10.1024 61.3385 10.0295L54.4939 9.35039L51.6504 3.08743C51.3451 2.41509 50.6706 1.98746 49.9323 1.99824C49.194 2.00902 48.5322 2.45616 48.2467 3.13712L45.8425 8.87141L38.5768 10.1537C37.8853 10.2758 37.3217 10.7774 37.1204 11.4501C36.919 12.1227 37.1143 12.8515 37.625 13.3334L42.4232 17.8607L41.422 24.7614C41.3224 25.4482 41.614 26.1333 42.1782 26.5376ZM44.3996 17.1722L38.8995 11.9826L47.1634 10.5241L49.9594 3.85518L53.2453 11.0928L61.1551 11.8776L55.739 16.6691L57.0146 24.9631L50.3323 21.4233L43.2599 25.028L44.3996 17.1722Z" fill="#1CAF97"/>
<path fill-rule="evenodd" clip-rule="evenodd" d="M51.7889 3.10558C51.4407 2.40904 50.7198 1.97799 49.9413 2.00087C49.1629 2.02374 48.4686 2.49638 48.1618 3.21217L45.6175 9.14887L38.2664 10.0137C37.4726 10.1071 36.8106 10.6642 36.5829 11.4304C36.3553 12.1966 36.6057 13.0247 37.2197 13.5364L42.3799 17.8366L41.5155 24.7519C41.4227 25.4946 41.7523 26.227 42.3698 26.65C42.9873 27.073 43.7893 27.1158 44.4483 26.7609L50.0342 23.7531L56.1057 26.7889C56.785 27.1285 57.5981 27.0541 58.2045 26.5967C58.8108 26.1393 59.1058 25.3779 58.9658 24.6314L57.6716 17.7288L62.3454 13.4799C62.9212 12.9565 63.1411 12.1467 62.9092 11.4039C62.6773 10.6612 62.0357 10.1204 61.2644 10.0175L54.815 9.15762L51.7889 3.10558Z" fill="#1CAF97"/>
<path fill-rule="evenodd" clip-rule="evenodd" d="M77.1782 26.5376C77.7424 26.9419 78.4849 26.9978 79.1032 26.6826L85.3158 23.5162L91.1453 26.6042C91.7658 26.9329 92.5186 26.8835 93.0908 26.4766C93.6631 26.0697 93.9569 25.3748 93.8501 24.6808L92.7286 17.3885L97.3856 13.2685C97.9387 12.7793 98.1493 12.0089 97.9222 11.3063C97.695 10.6037 97.0732 10.1024 96.3385 10.0295L89.4939 9.35039L86.6504 3.08743C86.3451 2.41509 85.6706 1.98746 84.9323 1.99824C84.194 2.00902 83.5322 2.45616 83.2467 3.13712L80.8425 8.87141L73.5768 10.1537C72.8853 10.2758 72.3217 10.7774 72.1204 11.4501C71.919 12.1227 72.1143 12.8515 72.625 13.3334L77.4232 17.8607L76.422 24.7614C76.3224 25.4482 76.614 26.1333 77.1782 26.5376ZM79.3996 17.1722L73.8995 11.9826L82.1634 10.5241L84.9594 3.85518L88.2453 11.0928L96.1551 11.8776L90.739 16.6691L92.0146 24.9631L85.3323 21.4233L78.2599 25.028L79.3996 17.1722Z" fill="#1CAF97"/>
<path fill-rule="evenodd" clip-rule="evenodd" d="M86.7889 3.10558C86.4407 2.40904 85.7198 1.97799 84.9413 2.00087C84.1629 2.02374 83.4686 2.49638 83.1618 3.21217L80.6175 9.14887L73.2664 10.0137C72.4726 10.1071 71.8106 10.6642 71.5829 11.4304C71.3553 12.1966 71.6057 13.0247 72.2197 13.5364L77.3799 17.8366L76.5155 24.7519C76.4227 25.4946 76.7523 26.227 77.3698 26.65C77.9873 27.073 78.7893 27.1158 79.4483 26.7609L85.0342 23.7531L91.1057 26.7889C91.785 27.1285 92.5981 27.0541 93.2045 26.5967C93.8108 26.1393 94.1058 25.3779 93.9658 24.6314L92.6716 17.7288L97.3454 13.4799C97.9212 12.9565 98.1411 12.1467 97.9092 11.4039C97.6773 10.6612 97.0357 10.1204 96.2644 10.0175L89.815 9.15762L86.7889 3.10558Z" fill="#1CAF97"/>
<path fill-rule="evenodd" clip-rule="evenodd" d="M112.178 26.5376C112.742 26.9419 113.485 26.9978 114.103 26.6826L120.316 23.5162L126.145 26.6042C126.766 26.9329 127.519 26.8835 128.091 26.4766C128.663 26.0697 128.957 25.3748 128.85 24.6808L127.729 17.3885L132.386 13.2685C132.939 12.7793 133.149 12.0089 132.922 11.3063C132.695 10.6037 132.073 10.1024 131.338 10.0295L124.494 9.35039L121.65 3.08743C121.345 2.41509 120.671 1.98746 119.932 1.99824C119.194 2.00902 118.532 2.45616 118.247 3.13712L115.843 8.87141L108.577 10.1537C107.885 10.2758 107.322 10.7774 107.12 11.4501C106.919 12.1227 107.114 12.8515 107.625 13.3334L112.423 17.8607L111.422 24.7614C111.322 25.4482 111.614 26.1333 112.178 26.5376ZM114.4 17.1722L108.9 11.9826L117.163 10.5241L119.959 3.85518L123.245 11.0928L131.155 11.8776L125.739 16.6691L127.015 24.9631L120.332 21.4233L113.26 25.028L114.4 17.1722Z" fill="#1CAF97"/>
<path fill-rule="evenodd" clip-rule="evenodd" d="M121.789 3.10558C121.441 2.40904 120.72 1.97799 119.941 2.00087C119.163 2.02374 118.469 2.49638 118.162 3.21217L115.617 9.14887L108.266 10.0137C107.473 10.1071 106.811 10.6642 106.583 11.4304C106.355 12.1966 106.606 13.0247 107.22 13.5364L112.38 17.8366L111.516 24.7519C111.423 25.4946 111.752 26.227 112.37 26.65C112.987 27.073 113.789 27.1158 114.448 26.7609L120.034 23.7531L126.106 26.7889C126.785 27.1285 127.598 27.0541 128.204 26.5967C128.811 26.1393 129.106 25.3779 128.966 24.6314L127.672 17.7288L132.345 13.4799C132.921 12.9565 133.141 12.1467 132.909 11.4039C132.677 10.6612 132.036 10.1204 131.264 10.0175L124.815 9.15762L121.789 3.10558Z" fill="#1CAF97"/>
<path fill-rule="evenodd" clip-rule="evenodd" d="M147.178 26.5376C147.742 26.9419 148.485 26.9978 149.103 26.6826L155.316 23.5162L161.145 26.6042C161.766 26.9329 162.519 26.8835 163.091 26.4766C163.663 26.0697 163.957 25.3748 163.85 24.6808L162.729 17.3885L167.386 13.2685C167.939 12.7793 168.149 12.0089 167.922 11.3063C167.695 10.6037 167.073 10.1024 166.338 10.0295L159.494 9.35039L156.65 3.08743C156.345 2.41509 155.671 1.98746 154.932 1.99824C154.194 2.00902 153.532 2.45616 153.247 3.13712L150.843 8.87141L143.577 10.1537C142.885 10.2758 142.322 10.7774 142.12 11.4501C141.919 12.1227 142.114 12.8515 142.625 13.3334L147.423 17.8607L146.422 24.7614C146.322 25.4482 146.614 26.1333 147.178 26.5376ZM149.4 17.1722L143.9 11.9826L152.163 10.5241L154.959 3.85518L158.245 11.0928L166.155 11.8776L160.739 16.6691L162.015 24.9631L155.332 21.4233L148.26 25.028L149.4 17.1722Z" fill="#D9D9D9"/>
<path fill-rule="evenodd" clip-rule="evenodd" d="M156.789 3.10558C156.441 2.40904 155.72 1.97799 154.941 2.00087C154.163 2.02374 153.469 2.49638 153.162 3.21217L150.617 9.14887L143.266 10.0137C142.473 10.1071 141.811 10.6642 141.583 11.4304C141.355 12.1966 141.606 13.0247 142.22 13.5364L147.38 17.8366L146.516 24.7519C146.423 25.4946 146.752 26.227 147.37 26.65C147.987 27.073 148.789 27.1158 149.448 26.7609L155.034 23.7531L161.106 26.7889C161.785 27.1285 162.598 27.0541 163.204 26.5967C163.811 26.1393 164.106 25.3779 163.966 24.6314L162.672 17.7288L167.345 13.4799C167.921 12.9565 168.141 12.1467 167.909 11.4039C167.677 10.6612 167.036 10.1204 166.264 10.0175L159.815 9.15762L156.789 3.10558Z" fill="#1CAF97"/>
</svg>
