<svg width="170" height="30" viewBox="0 0 170 30" fill="none" xmlns="http://www.w3.org/2000/svg">
<path fill-rule="evenodd" clip-rule="evenodd" d="M7.17867 26.5376C7.74284 26.9419 8.48534 26.9978 9.10371 26.6826L15.3163 23.5162L21.1457 26.6042C21.7662 26.9329 22.5191 26.8835 23.0913 26.4766C23.6636 26.0697 23.9574 25.3748 23.8506 24.6808L22.7291 17.3885L27.3861 13.2685C27.9392 12.7793 28.1498 12.0089 27.9227 11.3063C27.6955 10.6037 27.0737 10.1024 26.3389 10.0295L19.4943 9.35039L16.6509 3.08743C16.3456 2.41509 15.6711 1.98746 14.9327 1.99824C14.1944 2.00902 13.5327 2.45616 13.2472 3.13712L10.843 8.87141L3.57724 10.1537C2.88575 10.2758 2.32222 10.7774 2.12087 11.4501C1.91952 12.1227 2.11478 12.8515 2.62549 13.3334L7.42364 17.8607L6.42249 24.7614C6.32284 25.4482 6.61451 26.1333 7.17867 26.5376ZM9.4001 17.1722L3.90001 11.9826L12.1639 10.5241L14.9599 3.85518L18.2458 11.0928L26.1556 11.8776L20.7395 16.6691L22.0151 24.9631L15.3328 21.4233L8.26038 25.028L9.4001 17.1722Z" fill="#1CAF97"/>
<path fill-rule="evenodd" clip-rule="evenodd" d="M42.1787 26.5376C42.7428 26.9419 43.4853 26.9978 44.1037 26.6826L50.3163 23.5162L56.1457 26.6042C56.7662 26.9329 57.5191 26.8835 58.0913 26.4766C58.6636 26.0697 58.9574 25.3748 58.8506 24.6808L57.7291 17.3885L62.3861 13.2685C62.9392 12.7793 63.1498 12.0089 62.9227 11.3063C62.6955 10.6037 62.0737 10.1024 61.3389 10.0295L54.4943 9.35039L51.6509 3.08743C51.3456 2.41509 50.6711 1.98746 49.9327 1.99824C49.1944 2.00902 48.5327 2.45616 48.2472 3.13712L45.843 8.87141L38.5772 10.1537C37.8858 10.2758 37.3222 10.7774 37.1209 11.4501C36.9195 12.1227 37.1148 12.8515 37.6255 13.3334L42.4236 17.8607L41.4225 24.7614C41.3228 25.4482 41.6145 26.1333 42.1787 26.5376ZM44.4001 17.1722L38.9 11.9826L47.1639 10.5241L49.9599 3.85518L53.2458 11.0928L61.1556 11.8776L55.7395 16.6691L57.0151 24.9631L50.3328 21.4233L43.2604 25.028L44.4001 17.1722Z" fill="#1CAF97"/>
<path fill-rule="evenodd" clip-rule="evenodd" d="M77.1787 26.5376C77.7428 26.9419 78.4853 26.9978 79.1037 26.6826L85.3163 23.5162L91.1457 26.6042C91.7662 26.9329 92.5191 26.8835 93.0913 26.4766C93.6636 26.0697 93.9574 25.3748 93.8506 24.6808L92.7291 17.3885L97.3861 13.2685C97.9392 12.7793 98.1498 12.0089 97.9227 11.3063C97.6955 10.6037 97.0737 10.1024 96.3389 10.0295L89.4943 9.35039L86.6509 3.08743C86.3456 2.41509 85.6711 1.98746 84.9327 1.99824C84.1944 2.00902 83.5327 2.45616 83.2472 3.13712L80.843 8.87141L73.5772 10.1537C72.8858 10.2758 72.3222 10.7774 72.1209 11.4501C71.9195 12.1227 72.1148 12.8515 72.6255 13.3334L77.4236 17.8607L76.4225 24.7614C76.3228 25.4482 76.6145 26.1333 77.1787 26.5376ZM79.4001 17.1722L73.9 11.9826L82.1639 10.5241L84.9599 3.85518L88.2458 11.0928L96.1556 11.8776L90.7395 16.6691L92.0151 24.9631L85.3328 21.4233L78.2604 25.028L79.4001 17.1722Z" fill="#1CAF97"/>
<path fill-rule="evenodd" clip-rule="evenodd" d="M112.179 26.5376C112.743 26.9419 113.485 26.9978 114.104 26.6826L120.316 23.5162L126.146 26.6042C126.766 26.9329 127.519 26.8835 128.091 26.4766C128.664 26.0697 128.957 25.3748 128.851 24.6808L127.729 17.3885L132.386 13.2685C132.939 12.7793 133.15 12.0089 132.923 11.3063C132.696 10.6037 132.074 10.1024 131.339 10.0295L124.494 9.35039L121.651 3.08743C121.346 2.41509 120.671 1.98746 119.933 1.99824C119.194 2.00902 118.533 2.45616 118.247 3.13712L115.843 8.87141L108.577 10.1537C107.886 10.2758 107.322 10.7774 107.121 11.4501C106.92 12.1227 107.115 12.8515 107.625 13.3334L112.424 17.8607L111.422 24.7614C111.323 25.4482 111.615 26.1333 112.179 26.5376ZM114.4 17.1722L108.9 11.9826L117.164 10.5241L119.96 3.85518L123.246 11.0928L131.156 11.8776L125.739 16.6691L127.015 24.9631L120.333 21.4233L113.26 25.028L114.4 17.1722Z" fill="#1CAF97"/>
<path fill-rule="evenodd" clip-rule="evenodd" d="M147.179 26.5376C147.743 26.9419 148.485 26.9978 149.104 26.6826L155.316 23.5162L161.146 26.6042C161.766 26.9329 162.519 26.8835 163.091 26.4766C163.664 26.0697 163.957 25.3748 163.851 24.6808L162.729 17.3885L167.386 13.2685C167.939 12.7793 168.15 12.0089 167.923 11.3063C167.696 10.6037 167.074 10.1024 166.339 10.0295L159.494 9.35039L156.651 3.08743C156.346 2.41509 155.671 1.98746 154.933 1.99824C154.194 2.00902 153.533 2.45616 153.247 3.13712L150.843 8.87141L143.577 10.1537C142.886 10.2758 142.322 10.7774 142.121 11.4501C141.92 12.1227 142.115 12.8515 142.625 13.3334L147.424 17.8607L146.422 24.7614C146.323 25.4482 146.615 26.1333 147.179 26.5376ZM149.4 17.1722L143.9 11.9826L152.164 10.5241L154.96 3.85518L158.246 11.0928L166.156 11.8776L160.739 16.6691L162.015 24.9631L155.333 21.4233L148.26 25.028L149.4 17.1722Z" fill="#D9D9D9"/>
</svg>
