<svg width="54" height="54" viewBox="0 0 54 54" fill="none" xmlns="http://www.w3.org/2000/svg">
<rect x="0.437097" y="0.437097" width="53.1258" height="53.1258" rx="26.5629" stroke="#D9D9D9" stroke-width="0.874194"/>
<path fill-rule="evenodd" clip-rule="evenodd" d="M17.4792 26.3067C19.5521 28.9147 21.5559 30.4645 23.4079 31.2917C25.3982 32.1808 27.2715 32.2624 28.9826 31.8596C32.1638 31.1106 34.872 28.6567 36.5454 26.3505C32.4691 21.5487 28.4939 20.7026 25.2076 21.3937C21.9974 22.0687 19.2236 24.2568 17.4792 26.3067ZM24.7586 19.2586C29.1239 18.3406 34.0865 19.7323 38.763 25.6134C39.0551 25.9808 39.0795 26.4938 38.8235 26.8873C37.0521 29.61 33.7279 32.9839 29.4826 33.9833C27.3289 34.4904 24.9655 34.3771 22.5181 33.2839C20.0854 32.1972 17.6297 30.1701 15.2174 26.9459C14.9259 26.5562 14.9277 26.0205 15.222 25.6328C17.0931 23.1676 20.5205 20.1497 24.7586 19.2586Z" fill="#1CAF97"/>
<path fill-rule="evenodd" clip-rule="evenodd" d="M27 28.8187C28.205 28.8187 29.1818 27.8419 29.1818 26.6369C29.1818 25.4319 28.205 24.4551 27 24.4551C25.795 24.4551 24.8182 25.4319 24.8182 26.6369C24.8182 27.8419 25.795 28.8187 27 28.8187ZM27 31.0005C29.41 31.0005 31.3636 29.0469 31.3636 26.6369C31.3636 24.2269 29.41 22.2733 27 22.2733C24.59 22.2733 22.6364 24.2269 22.6364 26.6369C22.6364 29.0469 24.59 31.0005 27 31.0005Z" fill="#1CAF97"/>
</svg>
