<svg width="54" height="54" viewBox="0 0 54 54" fill="none" xmlns="http://www.w3.org/2000/svg">
<rect x="0.437097" y="0.437097" width="53.1258" height="53.1258" rx="26.5629" stroke="#D9D9D9" stroke-width="0.874194"/>
<path fill-rule="evenodd" clip-rule="evenodd" d="M19.8 19.2H34.2C36.851 19.2 39 21.349 39 24V34.8C39 37.451 36.851 39.6 34.2 39.6H19.8C17.149 39.6 15 37.451 15 34.8V24C15 21.349 17.149 19.2 19.8 19.2ZM19.8 21.6C18.4745 21.6 17.4 22.6745 17.4 24V34.8C17.4 36.1255 18.4745 37.2 19.8 37.2H34.2C35.5255 37.2 36.6 36.1255 36.6 34.8V24C36.6 22.6745 35.5255 21.6 34.2 21.6H19.8Z" fill="#1CAF97"/>
<path fill-rule="evenodd" clip-rule="evenodd" d="M32.4975 25.4236C33.0368 25.8088 33.1617 26.5583 32.7765 27.0976L29.7765 31.2976C29.4128 31.8067 28.7191 31.951 28.1826 31.6291L25.986 30.3111L23.0485 33.2486C22.5799 33.7173 21.8201 33.7173 21.3515 33.2486C20.8828 32.78 20.8828 32.0202 21.3515 31.5516L24.9515 27.9516C25.3408 27.5622 25.9452 27.4878 26.4174 27.7711L28.4674 29.0011L30.8235 25.7026C31.2087 25.1633 31.9582 25.0384 32.4975 25.4236Z" fill="#1CAF97"/>
<path fill-rule="evenodd" clip-rule="evenodd" d="M22.5515 15.3515C23.0201 14.8828 23.7799 14.8828 24.2485 15.3515L27.6 18.7029L30.9515 15.3515C31.4201 14.8828 32.1799 14.8828 32.6485 15.3515C33.1172 15.8201 33.1172 16.5799 32.6485 17.0485L28.4485 21.2485C27.9799 21.7172 27.2201 21.7172 26.7515 21.2485L22.5515 17.0485C22.0828 16.5799 22.0828 15.8201 22.5515 15.3515Z" fill="#1CAF97"/>
</svg>
