<svg width="54" height="54" viewBox="0 0 54 54" fill="none" xmlns="http://www.w3.org/2000/svg">
<rect x="0.437097" y="0.437097" width="53.1258" height="53.1258" rx="26.5629" stroke="#D9D9D9" stroke-width="0.874194"/>
<path d="M23.5334 18.9112H20.2978C19.0035 18.9112 18.3563 18.9112 17.862 19.1631C17.4271 19.3846 17.0735 19.7382 16.852 20.1731C16.6001 20.6674 16.6001 21.3146 16.6001 22.609V33.7023C16.6001 34.9966 16.6001 35.6438 16.852 36.1382C17.0735 36.573 17.4271 36.9266 17.862 37.1482C18.3563 37.4001 19.0035 37.4001 20.2978 37.4001H33.7023C34.9966 37.4001 35.6438 37.4001 36.1382 37.1482C36.573 36.9266 36.9266 36.573 37.1482 36.1382C37.4001 35.6438 37.4001 34.9966 37.4001 33.7023V22.609C37.4001 21.3146 37.4001 20.6674 37.1482 20.1731C36.9266 19.7382 36.573 19.3846 36.1382 19.1631C35.6438 18.9112 34.9966 18.9112 33.7023 18.9112H30.4667H23.5334Z" fill="white"/>
<path fill-rule="evenodd" clip-rule="evenodd" d="M19.215 18.0531C19.0333 18.0582 18.8649 18.0662 18.7093 18.0789C18.2704 18.1147 17.8582 18.1923 17.4685 18.3909C16.8706 18.6955 16.3844 19.1817 16.0798 19.7796C15.8812 20.1693 15.8036 20.5815 15.7678 21.0204C15.7334 21.4413 15.7334 21.9565 15.7334 22.5738V33.7375C15.7334 34.3547 15.7334 34.8699 15.7678 35.2908C15.8036 35.7298 15.8812 36.1419 16.0798 36.5316C16.3844 37.1296 16.8706 37.6157 17.4685 37.9204C17.8582 38.1189 18.2704 38.1965 18.7093 38.2324C19.1302 38.2668 19.6454 38.2667 20.2627 38.2667H33.7375C34.3547 38.2667 34.8699 38.2668 35.2908 38.2324C35.7298 38.1965 36.1419 38.1189 36.5316 37.9204C37.1296 37.6157 37.6157 37.1296 37.9204 36.5316C38.119 36.1419 38.1965 35.7298 38.2324 35.2908C38.2668 34.8699 38.2667 34.3547 38.2667 33.7375V22.5738C38.2667 21.9565 38.2668 21.4413 38.2324 21.0204C38.1965 20.5815 38.119 20.1693 37.9204 19.7796C37.6157 19.1817 37.1296 18.6955 36.5316 18.3909C36.1419 18.1923 35.7298 18.1147 35.2908 18.0789C35.1353 18.0662 34.9668 18.0582 34.7851 18.0531C34.6454 16.749 33.5413 15.7334 32.2001 15.7334C30.8618 15.7334 29.7596 16.7445 29.6159 18.0445H24.3842C24.2405 16.7445 23.1384 15.7334 21.8001 15.7334C20.4588 15.7334 19.3548 16.749 19.215 18.0531ZM20.9827 18.0445H22.6174C22.4984 17.7079 22.1774 17.4667 21.8001 17.4667C21.4227 17.4667 21.1017 17.7079 20.9827 18.0445ZM31.3827 18.0445H33.0174C32.8984 17.7079 32.5774 17.4667 32.2001 17.4667C31.8227 17.4667 31.5017 17.7079 31.3827 18.0445ZM36.5334 22.6667V22.609C36.5334 21.9475 36.5327 21.5035 36.5048 21.1616C36.4777 20.8298 36.4293 20.6712 36.376 20.5665C36.2375 20.2947 36.0165 20.0738 35.7447 19.9353C35.6401 19.882 35.4814 19.8336 35.1496 19.8065C34.8077 19.7785 34.3638 19.7778 33.7023 19.7778H20.2978C19.6364 19.7778 19.1924 19.7785 18.8505 19.8065C18.5187 19.8336 18.3601 19.882 18.2554 19.9353C17.9836 20.0738 17.7627 20.2947 17.6242 20.5665C17.5708 20.6712 17.5224 20.8298 17.4953 21.1616C17.4674 21.5035 17.4667 21.9475 17.4667 22.609V22.6667H36.5334ZM17.4667 24.4001H36.5334V33.7023C36.5334 34.3638 36.5327 34.8077 36.5048 35.1496C36.4777 35.4814 36.4293 35.6401 36.376 35.7447C36.2375 36.0165 36.0165 36.2375 35.7447 36.376C35.6401 36.4293 35.4814 36.4777 35.1496 36.5048C34.8077 36.5327 34.3638 36.5334 33.7023 36.5334H20.2978C19.6364 36.5334 19.1924 36.5327 18.8505 36.5048C18.5187 36.4777 18.3601 36.4293 18.2554 36.376C17.9836 36.2375 17.7627 36.0165 17.6242 35.7447C17.5708 35.6401 17.5224 35.4814 17.4953 35.1496C17.4674 34.8077 17.4667 34.3638 17.4667 33.7023V24.4001ZM31.0796 26.3872C31.418 26.7257 31.418 27.2744 31.0796 27.6129L26.8659 31.8266C26.3018 32.3907 25.3872 32.3907 24.8231 31.8266L22.9206 29.924C22.5821 29.5855 22.5821 29.0368 22.9206 28.6984C23.259 28.3599 23.8078 28.3599 24.1462 28.6984L25.8445 30.3966L29.8539 26.3872C30.1924 26.0488 30.7411 26.0488 31.0796 26.3872Z" fill="#1CAF97"/>
</svg>
