<svg width="54" height="54" viewBox="0 0 54 54" fill="none" xmlns="http://www.w3.org/2000/svg">
<rect x="0.437097" y="0.437097" width="53.1258" height="53.1258" rx="26.5629" stroke="#D9D9D9" stroke-width="0.874194"/>
<path fill-rule="evenodd" clip-rule="evenodd" d="M20.7143 19.4286H33.2857C36.4416 19.4286 39 21.9869 39 25.1429V32C39 35.1559 36.4416 37.7143 33.2857 37.7143H20.7143C17.5584 37.7143 15 35.1559 15 32V25.1429C15 21.9869 17.5584 19.4286 20.7143 19.4286ZM20.7143 21.7143C18.8207 21.7143 17.2857 23.2493 17.2857 25.1429V32C17.2857 33.8935 18.8207 35.4286 20.7143 35.4286H33.2857C35.1793 35.4286 36.7143 33.8935 36.7143 32V25.1429C36.7143 23.2493 35.1793 21.7143 33.2857 21.7143H20.7143Z" fill="#1CAF97"/>
<path fill-rule="evenodd" clip-rule="evenodd" d="M32.0619 19.4286C31.7846 17.4901 30.1175 16 28.1024 16H26.9595C24.9444 16 23.2773 17.4901 23 19.4286H25.3428C25.5781 18.7627 26.2131 18.2857 26.9595 18.2857H28.1024C28.8488 18.2857 29.4838 18.7627 29.7191 19.4286H32.0619Z" fill="#1CAF97"/>
<path fill-rule="evenodd" clip-rule="evenodd" d="M27 30.8571C28.2624 30.8571 29.2857 29.8338 29.2857 28.5714C29.2857 27.3091 28.2624 26.2857 27 26.2857C25.7376 26.2857 24.7143 27.3091 24.7143 28.5714C24.7143 29.8338 25.7376 30.8571 27 30.8571ZM27 33.1429C29.5247 33.1429 31.5714 31.0962 31.5714 28.5714C31.5714 26.0467 29.5247 24 27 24C24.4753 24 22.4286 26.0467 22.4286 28.5714C22.4286 31.0962 24.4753 33.1429 27 33.1429Z" fill="#1CAF97"/>
</svg>
