<svg width="133" height="36" viewBox="0 0 133 36" fill="none" xmlns="http://www.w3.org/2000/svg">
<path fill-rule="evenodd" clip-rule="evenodd" d="M29.2383 10.2644C30.0927 10.2644 30.7854 9.57173 30.7854 8.71728C30.7854 7.86283 30.0927 7.17016 29.2383 7.17016C28.3838 7.17016 27.6912 7.86283 27.6912 8.71728C27.6912 9.57173 28.3838 10.2644 29.2383 10.2644ZM29.2383 12.3272C31.232 12.3272 32.8482 10.711 32.8482 8.71728C32.8482 6.72356 31.232 5.10733 29.2383 5.10733C27.2446 5.10733 25.6283 6.72356 25.6283 8.71728C25.6283 9.88537 26.1831 10.9239 27.0436 11.5837L24.3424 20.5876C24.2561 20.5815 24.1689 20.5783 24.081 20.5783C23.4491 20.5783 22.8551 20.7407 22.3384 21.026L18.1571 17.2629C18.3193 16.8524 18.4083 16.4051 18.4083 15.9371C18.4083 13.9433 16.7921 12.3271 14.7984 12.3271C12.8047 12.3271 11.1885 13.9433 11.1885 15.9371C11.1885 16.8194 11.505 17.6279 12.0308 18.255L8.69631 23.6736C8.6676 23.6729 8.63881 23.6726 8.60994 23.6726C6.61623 23.6726 5 25.2888 5 27.2825C5 29.2763 6.61623 30.8925 8.60994 30.8925C10.6037 30.8925 12.2199 29.2763 12.2199 27.2825C12.2199 26.0705 11.6226 24.998 10.7063 24.3433L13.7526 19.3932C14.0836 19.4932 14.4347 19.547 14.7984 19.547C15.5731 19.547 16.2908 19.303 16.8788 18.8876L20.8904 22.4981C20.6227 23.0023 20.4711 23.5776 20.4711 24.1883C20.4711 26.182 22.0873 27.7982 24.081 27.7982C26.0748 27.7982 27.691 26.182 27.691 24.1883C27.691 23.0202 27.1362 21.9817 26.2758 21.3219L28.977 12.3179C29.0633 12.3241 29.1504 12.3272 29.2383 12.3272ZM24.081 25.7354C24.9355 25.7354 25.6282 25.0427 25.6282 24.1883C25.6282 23.3338 24.9355 22.6411 24.081 22.6411C23.2266 22.6411 22.5339 23.3338 22.5339 24.1883C22.5339 25.0427 23.2266 25.7354 24.081 25.7354ZM16.3455 15.9371C16.3455 16.2825 16.2323 16.6015 16.041 16.8589L16.031 16.8722C15.7485 17.2441 15.3015 17.4842 14.7984 17.4842C13.944 17.4842 13.2513 16.7915 13.2513 15.9371C13.2513 15.0826 13.944 14.3899 14.7984 14.3899C15.6529 14.3899 16.3455 15.0826 16.3455 15.9371ZM8.60994 28.8297C9.46439 28.8297 10.1571 28.137 10.1571 27.2825C10.1571 26.4281 9.46439 25.7354 8.60994 25.7354C7.75549 25.7354 7.06283 26.4281 7.06283 27.2825C7.06283 28.137 7.75549 28.8297 8.60994 28.8297Z" fill="#1CAF97"/>
<path d="M48.085 26.8404C46.7689 26.8404 45.6117 26.5756 44.6133 26.0462C43.6149 25.5092 42.8358 24.7566 42.2761 23.7884C41.7164 22.8203 41.4365 21.6819 41.4365 20.3734V10.1851L44.5679 10.1624V20.3507C44.5679 20.8877 44.6587 21.3756 44.8402 21.8143C45.0217 22.253 45.2713 22.6312 45.589 22.9488C45.9142 23.2665 46.2886 23.5123 46.7122 23.6863C47.1433 23.8527 47.6009 23.9359 48.085 23.9359C48.5842 23.9359 49.0456 23.8489 49.4692 23.675C49.9003 23.501 50.2747 23.2552 50.5924 22.9375C50.91 22.6198 51.1559 22.2416 51.3298 21.8029C51.5114 21.3643 51.6021 20.8802 51.6021 20.3507V10.1624H54.7335V20.3734C54.7335 21.6819 54.4536 22.8203 53.8939 23.7884C53.3342 24.7566 52.5551 25.5092 51.5567 26.0462C50.5583 26.5756 49.4011 26.8404 48.085 26.8404ZM63.914 26.8404C62.6962 26.8404 61.6789 26.5567 60.862 25.9895C60.0452 25.4222 59.4287 24.6507 59.0127 23.675C58.6043 22.6992 58.4001 21.5987 58.4001 20.3734C58.4001 19.1481 58.6043 18.0476 59.0127 17.0719C59.4211 16.0961 60.0225 15.3246 60.8167 14.7574C61.6108 14.1901 62.5903 13.9065 63.7551 13.9065C64.9275 13.9065 65.9486 14.1863 66.8184 14.746C67.6883 15.3057 68.3614 16.0734 68.8379 17.0492C69.322 18.0173 69.5641 19.1254 69.5641 20.3734C69.5641 21.5987 69.3258 22.6992 68.8493 23.675C68.3803 24.6507 67.7223 25.4222 66.8752 25.9895C66.028 26.5567 65.041 26.8404 63.914 26.8404ZM57.8782 31.9459V14.2468H60.6011V22.6425H60.9868V31.9459H57.8782ZM63.4148 24.0947C64.0804 24.0947 64.625 23.9283 65.0485 23.5955C65.4721 23.2627 65.786 22.8165 65.9902 22.2568C66.1944 21.6895 66.2965 21.0617 66.2965 20.3734C66.2965 19.6927 66.1907 19.0725 65.9789 18.5127C65.7671 17.9455 65.4381 17.4954 64.9918 17.1626C64.5531 16.8223 63.9896 16.6521 63.3013 16.6521C62.6584 16.6521 62.1365 16.8071 61.7356 17.1172C61.3423 17.4274 61.0549 17.8623 60.8734 18.422C60.6918 18.9817 60.6011 19.6322 60.6011 20.3734C60.6011 21.1147 60.6918 21.7651 60.8734 22.3248C61.0549 22.8846 61.3499 23.3195 61.7583 23.6296C62.1743 23.9397 62.7265 24.0947 63.4148 24.0947ZM76.516 26.8404C74.973 26.8404 73.725 26.4924 72.772 25.7966C71.8266 25.0932 71.2517 24.1023 71.0475 22.824L74.2015 22.3475C74.3301 22.9224 74.6138 23.3724 75.0525 23.6977C75.4987 24.0229 76.0622 24.1855 76.743 24.1855C77.3027 24.1855 77.7338 24.0796 78.0363 23.8678C78.3389 23.6485 78.4902 23.3459 78.4902 22.9602C78.4902 22.7182 78.4297 22.5253 78.3086 22.3816C78.1876 22.2303 77.9153 22.0828 77.4918 21.9391C77.0758 21.7954 76.4253 21.6063 75.5403 21.3718C74.5419 21.1147 73.7439 20.8272 73.1464 20.5096C72.5489 20.1919 72.1178 19.8137 71.853 19.375C71.5883 18.9287 71.4559 18.3917 71.4559 17.7639C71.4559 16.9773 71.6564 16.2966 72.0572 15.7217C72.4581 15.1393 73.0216 14.6931 73.7477 14.383C74.4814 14.0653 75.3437 13.9065 76.3345 13.9065C77.2951 13.9065 78.146 14.0539 78.8873 14.3489C79.6285 14.6439 80.226 15.0637 80.6799 15.6083C81.1412 16.1529 81.4249 16.7958 81.5308 17.537L78.3767 18.1043C78.3238 17.6505 78.1271 17.2912 77.7867 17.0265C77.4464 16.7617 76.985 16.6067 76.4026 16.5613C75.8353 16.5235 75.3777 16.5991 75.0298 16.7882C74.6894 16.9773 74.5192 17.2496 74.5192 17.6051C74.5192 17.8169 74.5911 17.9946 74.7348 18.1383C74.8861 18.282 75.1924 18.4295 75.6538 18.5808C76.1227 18.7321 76.8337 18.9287 77.7867 19.1708C78.7171 19.4128 79.4621 19.6965 80.0218 20.0217C80.5891 20.3394 81.0013 20.7251 81.2585 21.1789C81.5156 21.6252 81.6442 22.166 81.6442 22.8014C81.6442 24.0569 81.1904 25.044 80.2828 25.7625C79.3751 26.4811 78.1195 26.8404 76.516 26.8404ZM84.1147 26.5L84.1374 10.1624H87.2688V20.1465L91.4212 14.2468H95.2333L90.8086 20.3734L95.5283 26.5H91.512L87.2688 20.6003V26.5H84.1147ZM96.8843 12.545V9.82206H99.9703V12.545H96.8843ZM96.8843 26.5V14.2468H99.9703V26.5H96.8843ZM103.599 26.5V9.82206H106.685V26.5H103.599ZM110.313 26.5V9.82206H113.399V26.5H110.313ZM121.588 26.8404C120.045 26.8404 118.797 26.4924 117.844 25.7966C116.898 25.0932 116.324 24.1023 116.119 22.824L119.273 22.3475C119.402 22.9224 119.686 23.3724 120.124 23.6977C120.571 24.0229 121.134 24.1855 121.815 24.1855C122.375 24.1855 122.806 24.0796 123.108 23.8678C123.411 23.6485 123.562 23.3459 123.562 22.9602C123.562 22.7182 123.502 22.5253 123.381 22.3816C123.26 22.2303 122.987 22.0828 122.564 21.9391C122.148 21.7954 121.497 21.6063 120.612 21.3718C119.614 21.1147 118.816 20.8272 118.218 20.5096C117.621 20.1919 117.19 19.8137 116.925 19.375C116.66 18.9287 116.528 18.3917 116.528 17.7639C116.528 16.9773 116.728 16.2966 117.129 15.7217C117.53 15.1393 118.094 14.6931 118.82 14.383C119.553 14.0653 120.416 13.9065 121.406 13.9065C122.367 13.9065 123.218 14.0539 123.959 14.3489C124.7 14.6439 125.298 15.0637 125.752 15.6083C126.213 16.1529 126.497 16.7958 126.603 17.537L123.449 18.1043C123.396 17.6505 123.199 17.2912 122.859 17.0265C122.518 16.7617 122.057 16.6067 121.475 16.5613C120.907 16.5235 120.45 16.5991 120.102 16.7882C119.761 16.9773 119.591 17.2496 119.591 17.6051C119.591 17.8169 119.663 17.9946 119.807 18.1383C119.958 18.282 120.264 18.4295 120.726 18.5808C121.195 18.7321 121.906 18.9287 122.859 19.1708C123.789 19.4128 124.534 19.6965 125.094 20.0217C125.661 20.3394 126.073 20.7251 126.33 21.1789C126.588 21.6252 126.716 22.166 126.716 22.8014C126.716 24.0569 126.262 25.044 125.355 25.7625C124.447 26.4811 123.191 26.8404 121.588 26.8404Z" fill="#2E343F"/>
</svg>
