<svg width="200" height="203" viewBox="0 0 200 203" fill="none" xmlns="http://www.w3.org/2000/svg">
<g filter="url(#filter0_d_405_5922)">
<path fill-rule="evenodd" clip-rule="evenodd" d="M88.2373 76.332C88.2373 75.4975 88.7064 74.7338 89.4508 74.3566C90.1952 73.9794 91.0885 74.0527 91.7614 74.5462L124.979 98.906C125.548 99.3232 125.884 99.9864 125.884 100.692C125.884 101.397 125.548 102.06 124.979 102.478L91.7614 126.838C91.0885 127.331 90.1952 127.404 89.4508 127.027C88.7064 126.65 88.2373 125.886 88.2373 125.052V76.332Z" fill="white"/>
<path d="M89.4508 74.3566L89.2913 74.0418L89.2913 74.0418L89.4508 74.3566ZM91.7614 74.5462L91.5527 74.8308L91.5527 74.8308L91.7614 74.5462ZM124.979 98.906L125.188 98.6214L125.188 98.6214L124.979 98.906ZM124.979 102.478L125.188 102.762L125.188 102.762L124.979 102.478ZM91.7614 126.838L91.9702 127.122L91.9702 127.122L91.7614 126.838ZM89.4508 127.027L89.2913 127.342L89.2913 127.342L89.4508 127.027ZM89.2913 74.0418C88.4283 74.4791 87.8844 75.3645 87.8844 76.332H88.5902C88.5902 75.6305 88.9846 74.9885 89.6104 74.6714L89.2913 74.0418ZM91.9702 74.2616C91.1899 73.6894 90.1543 73.6044 89.2913 74.0418L89.6104 74.6714C90.2361 74.3543 90.987 74.4159 91.5527 74.8308L91.9702 74.2616ZM125.188 98.6214L91.9702 74.2616L91.5527 74.8308L124.771 99.1906L125.188 98.6214ZM126.237 100.692C126.237 99.874 125.848 99.1051 125.188 98.6214L124.771 99.1906C125.249 99.5413 125.531 100.099 125.531 100.692H126.237ZM125.188 102.762C125.848 102.279 126.237 101.51 126.237 100.692H125.531C125.531 101.285 125.249 101.842 124.771 102.193L125.188 102.762ZM91.9702 127.122L125.188 102.762L124.771 102.193L91.5527 126.553L91.9702 127.122ZM89.2913 127.342C90.1543 127.779 91.1899 127.694 91.9702 127.122L91.5527 126.553C90.987 126.968 90.2361 127.029 89.6104 126.712L89.2913 127.342ZM87.8844 125.052C87.8844 126.019 88.4283 126.905 89.2913 127.342L89.6104 126.712C88.9846 126.395 88.5902 125.753 88.5902 125.052H87.8844ZM87.8844 76.332V125.052H88.5902V76.332H87.8844Z" fill="white"/>
<path fill-rule="evenodd" clip-rule="evenodd" d="M100 165.882C136.386 165.882 165.882 136.386 165.882 100C165.882 63.6142 136.386 34.1176 100 34.1176C63.6142 34.1176 34.1176 63.6142 34.1176 100C34.1176 136.386 63.6142 165.882 100 165.882ZM100 180C144.183 180 180 144.183 180 100C180 55.8172 144.183 20 100 20C55.8172 20 20 55.8172 20 100C20 144.183 55.8172 180 100 180Z" fill="white"/>
</g>
<defs>
<filter id="filter0_d_405_5922" x="-12" y="-1" width="224" height="224" filterUnits="userSpaceOnUse" color-interpolation-filters="sRGB">
<feFlood flood-opacity="0" result="BackgroundImageFix"/>
<feColorMatrix in="SourceAlpha" type="matrix" values="0 0 0 0 0 0 0 0 0 0 0 0 0 0 0 0 0 0 127 0" result="hardAlpha"/>
<feOffset dy="11"/>
<feGaussianBlur stdDeviation="6"/>
<feComposite in2="hardAlpha" operator="out"/>
<feColorMatrix type="matrix" values="0 0 0 0 0 0 0 0 0 0 0 0 0 0 0 0 0 0 0.09 0"/>
<feBlend mode="normal" in2="BackgroundImageFix" result="effect1_dropShadow_405_5922"/>
<feBlend mode="normal" in="SourceGraphic" in2="effect1_dropShadow_405_5922" result="shape"/>
</filter>
</defs>
</svg>
